<svg width="40" height="40" viewBox="0 0 40 40" fill="none" xmlns="http://www.w3.org/2000/svg">
<mask id="mask0_44_877" style="mask-type:alpha" maskUnits="userSpaceOnUse" x="0" y="0" width="40" height="40">
<rect width="40" height="40" fill="#D9D9D9"/>
</mask>
<g mask="url(#mask0_44_877)">
<path d="M20.0007 26.6667L26.6673 20L24.334 17.6667L21.6673 20.3333V13.3333H18.334V20.3333L15.6673 17.6667L13.334 20L20.0007 26.6667ZM20.0007 36.6667C17.6951 36.6667 15.5284 36.2292 13.5007 35.3542C11.4729 34.4792 9.70898 33.2917 8.20898 31.7917C6.70898 30.2917 5.52148 28.5278 4.64648 26.5C3.77148 24.4722 3.33398 22.3056 3.33398 20C3.33398 17.6945 3.77148 15.5278 4.64648 13.5C5.52148 11.4722 6.70898 9.70834 8.20898 8.20834C9.70898 6.70834 11.4729 5.52084 13.5007 4.64584C15.5284 3.77084 17.6951 3.33334 20.0007 3.33334C22.3062 3.33334 24.4729 3.77084 26.5007 4.64584C28.5284 5.52084 30.2923 6.70834 31.7923 8.20834C33.2923 9.70834 34.4798 11.4722 35.3548 13.5C36.2298 15.5278 36.6673 17.6945 36.6673 20C36.6673 22.3056 36.2298 24.4722 35.3548 26.5C34.4798 28.5278 33.2923 30.2917 31.7923 31.7917C30.2923 33.2917 28.5284 34.4792 26.5007 35.3542C24.4729 36.2292 22.3062 36.6667 20.0007 36.6667Z" fill="#E6FE74"/>
</g>
</svg>
